<?xml version="1.0" standalone="no"?>
<!DOCTYPE svg PUBLIC "-//W3C//DTD SVG 20010904//EN"
 "http://www.w3.org/TR/2001/REC-SVG-20010904/DTD/svg10.dtd">
<svg version="1.0" xmlns="http://www.w3.org/2000/svg"
 width="128.000000pt" height="128.000000pt" viewBox="0 0 128.000000 128.000000"
 preserveAspectRatio="xMidYMid meet">
<metadata>
Created by potrace 1.10, written by Peter Selinger 2001-2011
</metadata>
<g transform="translate(0.000000,128.000000) scale(0.100000,-0.100000)"
fill="#000000" stroke="none">
<path d="M510 1225 c-110 -25 -205 -79 -290 -164 -87 -87 -131 -164 -160 -277
-36 -141 -20 -282 49 -417 34 -67 38 -81 29 -105 -15 -39 -4 -76 38 -122 35
-38 74 -53 74 -28 0 7 15 -3 33 -20 31 -30 35 -31 48 -16 12 14 10 19 -15 40
-16 15 -26 31 -22 39 8 22 24 18 50 -12 21 -24 26 -26 40 -14 15 13 14 17 -16
48 -17 18 -27 33 -20 33 23 0 12 36 -21 67 -45 43 -72 55 -115 51 -36 -3 -38
-1 -69 57 -144 270 -28 621 250 754 149 72 274 79 443 26 16 -5 23 -2 26 13 5
17 -3 23 -56 38 -81 23 -214 27 -296 9z m-221 -965 c30 -28 32 -32 19 -52 -8
-12 -28 -32 -45 -45 l-31 -24 -31 31 c-80 81 4 166 88 90z"/>
<path d="M949 1204 c-12 -14 -10 -19 15 -40 16 -15 26 -31 22 -39 -8 -22 -24
-18 -50 12 -21 24 -26 26 -40 14 -15 -13 -14 -17 16 -48 17 -18 27 -33 20 -33
-23 0 -12 -36 21 -67 45 -43 72 -55 115 -51 37 3 37 3 73 -70 79 -160 79 -321
-1 -488 -87 -182 -263 -298 -470 -311 -79 -5 -134 3 -226 32 -16 5 -23 2 -26
-13 -5 -17 3 -22 55 -37 214 -60 430 -3 588 154 188 189 231 456 110 694 -34
67 -38 81 -29 105 15 39 4 76 -38 122 -35 38 -74 53 -74 28 0 -7 -15 3 -33 20
-31 30 -35 31 -48 16z m136 -101 c26 -29 32 -62 15 -94 -17 -30 -69 -25 -108
11 -37 33 -34 51 14 89 35 28 48 26 79 -6z"/>
<path d="M542 1005 c-77 -22 -110 -41 -173 -104 -76 -76 -103 -145 -103 -261
0 -103 25 -176 84 -243 112 -127 274 -166 436 -106 81 31 172 121 204 204 33
85 33 207 0 290 -32 83 -123 173 -205 205 -76 28 -173 35 -243 15z m223 -46
c79 -29 165 -114 193 -192 45 -119 21 -259 -59 -350 -69 -80 -152 -117 -259
-117 -138 0 -249 70 -311 196 -34 70 -39 188 -10 265 22 59 72 124 122 160 85
60 222 76 324 38z"/>
<path d="M595 858 c-29 -34 -125 -227 -125 -251 0 -25 34 -58 63 -61 38 -4 45
-13 50 -69 5 -52 29 -87 58 -87 9 0 29 14 44 32 29 34 125 227 125 251 0 37
-35 60 -102 66 -4 1 -10 27 -13 59 -12 94 -51 118 -100 60z m65 -78 l0 -80 54
0 c30 0 58 -5 62 -11 4 -7 -22 -70 -57 -140 -46 -93 -68 -129 -81 -129 -16 0
-18 10 -18 80 l0 80 -55 0 c-38 0 -57 4 -61 14 -3 8 20 65 51 127 64 127 72
139 91 139 11 0 14 -19 14 -80z"/>
</g>
</svg>
